<?xml version="1.0" encoding="utf-8"?>
<!-- Generator: Adobe Illustrator 16.0.4, SVG Export Plug-In . SVG Version: 6.00 Build 0)  -->
<!DOCTYPE svg PUBLIC "-//W3C//DTD SVG 1.1//EN" "http://www.w3.org/Graphics/SVG/1.1/DTD/svg11.dtd">
<svg version="1.1" id="圖層_1" xmlns="http://www.w3.org/2000/svg" xmlns:xlink="http://www.w3.org/1999/xlink" x="0px" y="0px"
	 width="28.35px" height="28.35px" viewBox="0 0 28.35 28.35" enable-background="new 0 0 28.35 28.35" xml:space="preserve">
<g id="Livello_1_1_">
</g>
<path d="M14.175,18.519c-0.585,0-1.061,0.502-1.061,1.117v0.557c0,0.617,0.476,1.117,1.061,1.117c0.585,0,1.061-0.5,1.061-1.117
	v-0.557c0-0.297-0.109-0.576-0.308-0.787C14.728,18.636,14.46,18.519,14.175,18.519z M13.114,11.208v5.35
	c0,0.615,0.476,1.115,1.061,1.115c0.585,0,1.061-0.5,1.061-1.115v-5.35c0-0.297-0.109-0.576-0.308-0.787
	c-0.2-0.213-0.468-0.33-0.753-0.33C13.59,10.091,13.114,10.592,13.114,11.208z M26.042,21.74L15.995,4.532
	c-0.381-0.651-1.061-1.04-1.821-1.04c-0.759,0-1.44,0.389-1.82,1.04L2.308,21.74c-0.38,0.65-0.38,1.428,0,2.078
	s1.061,1.039,1.82,1.039h20.094c0.76,0,1.44-0.389,1.82-1.039S26.422,22.39,26.042,21.74z M4.163,22.759L14.175,5.612l10.012,17.147
	H4.163z"/>
</svg>
