<?xml version="1.0" encoding="utf-8"?>
<!-- Generator: Adobe Illustrator 16.0.4, SVG Export Plug-In . SVG Version: 6.00 Build 0)  -->
<!DOCTYPE svg PUBLIC "-//W3C//DTD SVG 1.1//EN" "http://www.w3.org/Graphics/SVG/1.1/DTD/svg11.dtd">
<svg version="1.1" id="圖層_1" xmlns="http://www.w3.org/2000/svg" xmlns:xlink="http://www.w3.org/1999/xlink" x="0px" y="0px"
	 width="28.35px" height="28.35px" viewBox="0 0 28.35 28.35" enable-background="new 0 0 28.35 28.35" xml:space="preserve">
<g id="Livello_1_1_">
</g>
<g>
	<g>
		<path d="M26.353,6.473h-1.83V4.578c0-0.435-0.315-0.802-0.746-0.868c-0.075-0.01-1.858-0.27-4.006,0.121
			c-2.394,0.436-4.302,1.509-5.596,3.132c-1.295-1.623-3.203-2.697-5.597-3.132c-2.146-0.39-3.929-0.13-4.004-0.121
			C4.145,3.776,3.828,4.144,3.828,4.578v1.895h-1.83c-0.483,0-0.876,0.391-0.876,0.875v16.508c0,0.282,0.138,0.549,0.369,0.714
			c0.231,0.164,0.527,0.208,0.795,0.114c0.065-0.023,6.63-2.263,11.524-0.029c0.231,0.104,0.497,0.104,0.728,0
			c4.88-2.229,11.46,0.007,11.527,0.029c0.093,0.032,0.19,0.048,0.288,0.048c0.181,0,0.356-0.055,0.508-0.162
			c0.229-0.164,0.367-0.432,0.367-0.714V7.349C27.228,6.864,26.837,6.473,26.353,6.473z M2.874,22.685V8.224h0.954v11.668
			c0,0.255,0.111,0.495,0.303,0.663c0.193,0.165,0.45,0.241,0.701,0.202c0.049-0.006,3.853-0.529,6.634,1.378
			C8.04,21.55,4.613,22.228,2.874,22.685z M13.298,21.344c-1.223-1.104-2.82-1.853-4.72-2.199c-0.915-0.166-1.764-0.216-2.442-0.216
			c-0.202,0-0.387,0.006-0.557,0.012V5.383l0,0c1.685-0.076,5.78,0.104,7.719,3.392V21.344z M15.052,8.774
			c1.93-3.272,6.035-3.461,7.717-3.39v13.556c-0.735-0.029-1.813-0.012-2.998,0.205c-1.901,0.347-3.495,1.094-4.719,2.199V8.774
			L15.052,8.774z M16.88,22.137c2.78-1.91,6.589-1.388,6.637-1.381c0.252,0.04,0.51-0.035,0.701-0.201
			c0.195-0.167,0.305-0.409,0.305-0.664V8.224h0.953v14.461C23.735,22.228,20.308,21.55,16.88,22.137z"/>
	</g>
</g>
</svg>
