<?xml version="1.0" encoding="utf-8"?>
<!-- Generator: Adobe Illustrator 16.0.4, SVG Export Plug-In . SVG Version: 6.00 Build 0)  -->
<!DOCTYPE svg PUBLIC "-//W3C//DTD SVG 1.1//EN" "http://www.w3.org/Graphics/SVG/1.1/DTD/svg11.dtd">
<svg version="1.1" id="圖層_1" xmlns="http://www.w3.org/2000/svg" xmlns:xlink="http://www.w3.org/1999/xlink" x="0px" y="0px"
	 width="28.35px" height="28.35px" viewBox="0 0 28.35 28.35" enable-background="new 0 0 28.35 28.35" xml:space="preserve">
<g id="Livello_1_1_">
</g>
<g>
	<path d="M23.921,7.134H4.427c-1.79,0-3.249,1.458-3.249,3.25v11.915c0,1.79,1.458,3.249,3.249,3.249h19.495
		c1.793,0,3.25-1.459,3.25-3.249V10.385C27.171,8.592,25.715,7.134,23.921,7.134z M25.004,22.298c0,0.596-0.485,1.083-1.083,1.083
		H4.427c-0.597,0-1.083-0.487-1.083-1.083V10.385c0-0.596,0.486-1.083,1.083-1.083h19.495c0.598,0,1.083,0.487,1.083,1.083V22.298z"
		/>
	<rect x="14.175" y="13.634" width="7.581" height="2.167"/>
	<rect x="14.175" y="17.966" width="7.581" height="2.166"/>
	<path d="M9.842,16.883H7.677c-1.195,0-2.166,0.97-2.166,2.166v2.165h6.497v-2.165C12.008,17.853,11.038,16.883,9.842,16.883z"/>
	<circle cx="8.76" cy="13.634" r="2.166"/>
	<path d="M10.925,6.052h2.166c0-0.597,0.485-1.083,1.083-1.083c0.597,0,1.084,0.486,1.084,1.083h2.165
		c0-1.791-1.459-3.25-3.249-3.25C12.383,2.803,10.925,4.261,10.925,6.052z"/>
</g>
</svg>
