<?xml version="1.0" encoding="utf-8"?>
<!-- Generator: Adobe Illustrator 16.0.4, SVG Export Plug-In . SVG Version: 6.00 Build 0)  -->
<!DOCTYPE svg PUBLIC "-//W3C//DTD SVG 1.1//EN" "http://www.w3.org/Graphics/SVG/1.1/DTD/svg11.dtd">
<svg version="1.1" id="圖層_1" xmlns="http://www.w3.org/2000/svg" xmlns:xlink="http://www.w3.org/1999/xlink" x="0px" y="0px"
	 width="28.35px" height="28.35px" viewBox="0 0 28.35 28.35" enable-background="new 0 0 28.35 28.35" xml:space="preserve">
<g id="Livello_1_1_">
</g>
<g>
	<g>
		<path d="M24.473,8.206c-1.063-1.822-2.507-3.264-4.329-4.327c-1.821-1.062-3.811-1.594-5.968-1.594
			c-2.158,0-4.147,0.532-5.969,1.594C6.384,4.942,4.942,6.384,3.88,8.206c-1.063,1.823-1.595,3.812-1.595,5.969
			s0.532,4.147,1.594,5.969c1.063,1.822,2.505,3.265,4.329,4.329c1.822,1.062,3.811,1.593,5.968,1.593s4.147-0.53,5.969-1.593
			c1.822-1.063,3.266-2.507,4.329-4.329c1.062-1.821,1.593-3.812,1.593-5.969S25.535,10.029,24.473,8.206z M23.295,18.023
			c-0.526,1.223-1.231,2.275-2.114,3.158c-0.883,0.882-1.935,1.588-3.158,2.114c-1.223,0.526-2.505,0.789-3.847,0.789
			s-2.624-0.263-3.849-0.789c-1.222-0.526-2.275-1.232-3.158-2.114c-0.882-0.883-1.587-1.936-2.114-3.158
			c-0.525-1.223-0.79-2.506-0.79-3.848s0.264-2.624,0.79-3.848C5.583,9.105,6.287,8.052,7.17,7.168
			c0.882-0.882,1.936-1.586,3.158-2.113c1.224-0.526,2.507-0.79,3.849-0.79s2.624,0.263,3.847,0.79
			c1.224,0.526,2.275,1.23,3.158,2.113c0.883,0.884,1.588,1.937,2.114,3.159c0.527,1.224,0.789,2.506,0.789,3.848
			S23.823,16.8,23.295,18.023z"/>
		<path d="M17.706,16.312c-1.044-0.765-2.221-1.146-3.53-1.146c-1.312,0-2.488,0.381-3.53,1.146c-1.043,0.765-1.755,1.77-2.137,3.02
			c-0.083,0.258-0.062,0.509,0.062,0.751c0.124,0.243,0.32,0.405,0.589,0.488c0.258,0.083,0.508,0.062,0.751-0.062
			c0.243-0.123,0.404-0.321,0.487-0.588c0.258-0.826,0.736-1.495,1.433-2.007c0.697-0.51,1.479-0.766,2.345-0.766
			c0.868,0,1.649,0.256,2.346,0.766c0.697,0.512,1.174,1.181,1.433,2.007c0.081,0.267,0.248,0.465,0.495,0.588
			c0.247,0.124,0.5,0.146,0.758,0.062c0.26-0.083,0.45-0.245,0.574-0.488c0.123-0.242,0.145-0.493,0.062-0.751
			C19.46,18.081,18.748,17.076,17.706,16.312z"/>
		<path d="M10.211,12.194c0.548,0,1.015-0.194,1.402-0.58c0.386-0.387,0.58-0.854,0.58-1.402c0-0.547-0.194-1.014-0.58-1.401
			c-0.387-0.387-0.854-0.58-1.402-0.58c-0.547,0-1.014,0.193-1.401,0.58c-0.387,0.389-0.58,0.854-0.58,1.401
			c0,0.548,0.193,1.015,0.58,1.402C9.198,11.999,9.664,12.194,10.211,12.194z"/>
		<path d="M18.139,8.23c-0.547,0-1.015,0.193-1.401,0.58c-0.387,0.388-0.581,0.854-0.581,1.401c0,0.548,0.194,1.015,0.581,1.402
			c0.387,0.386,0.854,0.58,1.401,0.58s1.014-0.194,1.401-0.58c0.387-0.387,0.58-0.854,0.58-1.402c0-0.547-0.193-1.014-0.58-1.401
			C19.153,8.423,18.686,8.23,18.139,8.23z"/>
	</g>
</g>
</svg>
