<?xml version="1.0" encoding="utf-8"?>
<!-- Generator: Adobe Illustrator 16.0.4, SVG Export Plug-In . SVG Version: 6.00 Build 0)  -->
<!DOCTYPE svg PUBLIC "-//W3C//DTD SVG 1.1//EN" "http://www.w3.org/Graphics/SVG/1.1/DTD/svg11.dtd">
<svg version="1.1" id="圖層_1" xmlns="http://www.w3.org/2000/svg" xmlns:xlink="http://www.w3.org/1999/xlink" x="0px" y="0px"
	 width="28.35px" height="28.35px" viewBox="0 0 28.35 28.35" enable-background="new 0 0 28.35 28.35" xml:space="preserve">
<g id="Livello_1_1_">
</g>
<g>
	<rect x="9.917" y="24.294" width="8.517" height="2.127"/>
	<path d="M9.917,20.095v3.133h8.517v-3.133c3.259-1.609,5.326-4.904,5.326-8.582c0-5.285-4.3-9.584-9.585-9.584
		s-9.585,4.3-9.585,9.584C4.59,15.191,6.657,18.486,9.917,20.095z M14.175,4.058c4.111,0,7.455,3.345,7.455,7.455
		c0,3.05-1.829,5.762-4.66,6.908l-0.664,0.27v2.406H15.24v-6.389h1.065v-2.13h-4.261v2.13h1.064v6.389h-1.064v-2.406l-0.665-0.27
		c-2.828-1.146-4.659-3.858-4.659-6.908C6.721,7.403,10.066,4.058,14.175,4.058z"/>
</g>
</svg>
