<?xml version="1.0" encoding="utf-8"?>
<!-- Generator: Adobe Illustrator 24.2.3, SVG Export Plug-In . SVG Version: 6.00 Build 0)  -->
<svg version="1.1" id="圖層_1" xmlns="http://www.w3.org/2000/svg" xmlns:xlink="http://www.w3.org/1999/xlink" x="0px" y="0px"
	 viewBox="0 0 20 20" style="enable-background:new 0 0 20 20;" xml:space="preserve">
<style type="text/css">
	.st0{opacity:0.5;fill-rule:evenodd;clip-rule:evenodd;fill:#FFFFFF;}
</style>
<path id="形狀_19" class="st0" d="M19.1,16.6c-1.3,0.2-2.5,0.5-3.7,1.1c-1.3,0.6-2.5,1.3-3.6,2.2L11.5,20H8.4l-0.3-0.2
	c-1.1-0.9-2.3-1.6-3.6-2.2c-1.2-0.5-2.4-0.9-3.7-1.1c-0.5,0-0.9-0.5-0.9-1c0-0.5,0.4-0.9,0.9-0.9c0.1,0,0.1,0,0.2,0
	c1.5,0.2,2.9,0.6,4.2,1.2c1.3,0.6,2.6,1.4,3.7,2.2h1.9c1.2-0.9,2.4-1.6,3.7-2.2c1.3-0.6,2.8-1,4.2-1.2c0.5-0.1,1,0.2,1.1,0.8
	c0.1,0.5-0.2,1-0.8,1.1C19.2,16.6,19.1,16.6,19.1,16.6L19.1,16.6L19.1,16.6z M9.4,15.9V3.8c0-0.2-0.1-0.4-0.3-0.5
	C7.9,2.3,6.6,1.6,5.2,1.1C3.8,0.5,2.2,0.2,0.7,0C0.3,0,0,0.3,0,0.6c0,0,0,0,0,0v12.2c0,0.3,0.3,0.6,0.6,0.6c1.4,0.2,2.8,0.5,4.1,1
	c1.3,0.5,2.5,1.2,3.6,2c0.3,0.2,0.7,0.1,0.9-0.1C9.3,16.2,9.4,16.1,9.4,15.9L9.4,15.9L9.4,15.9z M10.6,15.9c0,0.1,0,0.3,0.1,0.4
	c0.2,0.3,0.6,0.3,0.9,0.1c1.1-0.8,2.3-1.5,3.6-2c1.3-0.5,2.7-0.8,4.1-1c0.3,0,0.6-0.3,0.6-0.6V0.6C20,0.3,19.7,0,19.3,0c0,0,0,0,0,0
	c-1.5,0.2-3.1,0.5-4.5,1.1c-1.4,0.5-2.7,1.2-3.9,2.1c-0.2,0.1-0.3,0.3-0.3,0.5L10.6,15.9L10.6,15.9z"/>
</svg>
