<?xml version="1.0" encoding="utf-8"?>
<!-- Generator: Adobe Illustrator 24.2.3, SVG Export Plug-In . SVG Version: 6.00 Build 0)  -->
<svg version="1.1" id="圖層_1" xmlns="http://www.w3.org/2000/svg" xmlns:xlink="http://www.w3.org/1999/xlink" x="0px" y="0px"
	 viewBox="0 0 666 120" style="enable-background:new 0 0 666 120;" xml:space="preserve">
<style type="text/css">
	.st0{enable-background:new    ;}
	.st1{fill:#FFFFFF;}
	.st2{fill:#ABFFFD;}
	.st3{fill:#0E488A;}
</style>
<g id="群組_41">
	<g class="st0">
		<path class="st1" d="M48.5,86.8c0-0.4,0-0.7-0.1-0.9c-0.3,0-0.6,0-1,0s-0.8,0-1.2,0.1c-0.4,0-0.9,0.1-1.3,0.1
			c-0.5,0-0.9,0.1-1.2,0.1c0-0.2,0.1-0.4,0.1-0.6s0-0.4,0-0.6s0-0.4,0-0.6s-0.1-0.4-0.1-0.6c0.6,0,1.1,0,1.6,0.1c0.5,0,1,0,1.5,0
			s1,0,1.6,0s1.3,0,2.1,0s1.5,0,2.1,0s1.1,0,1.6,0s1,0,1.4,0c0.5,0,1,0,1.5-0.1c0,0.2-0.1,0.4-0.1,0.6s0,0.4,0,0.6s0,0.4,0,0.6
			s0.1,0.4,0.1,0.6c-0.3-0.1-0.7-0.1-1.2-0.1C55.5,86,55,86,54.6,86s-0.8,0-1.2-0.1c-0.4,0-0.7,0-1,0c0,0.1,0,0.2,0,0.4s0,0.3,0,0.5
			v1.4v6.5c0,1.4,0,2.7,0.1,3.8c0,1.1,0.1,2.2,0.2,3.3c-0.3,0-0.6-0.1-1-0.1c-0.3,0-0.7,0-1.2,0c-0.4,0-0.8,0-1.2,0s-0.7,0-1,0.1
			c0.1-1.1,0.1-2.2,0.2-3.3c0-1.1,0.1-2.4,0.1-3.8v-6.5C48.5,87.7,48.5,87.2,48.5,86.8z"/>
		<path class="st1" d="M58.2,86.5c0-1.4-0.1-2.9-0.2-4.3c0.2,0,0.5,0.1,0.9,0.1c0.3,0,0.7,0,1.1,0c0.4,0,0.7,0,1.1,0
			c0.3,0,0.6-0.1,0.9-0.1c-0.1,1.5-0.1,2.9-0.2,4.3c0,1.4-0.1,3-0.1,4.7l0.1,0.1c0.5-0.7,1-1.3,1.7-1.7c0.7-0.4,1.4-0.6,2.2-0.6
			c1.3,0,2.3,0.4,3,1.1s1.1,2,1.1,3.7c0,0.9,0,1.7-0.1,2.3c0,0.7-0.1,1.4-0.1,2s0,1.2,0,1.8c0,0.6,0.1,1.3,0.1,1.9
			c-0.2,0-0.5-0.1-0.9-0.1s-0.7,0-1.1,0s-0.7,0-1.1,0c-0.3,0-0.6,0-0.9,0.1c0.1-0.9,0.2-2,0.2-3.2S66,96,66,94.4
			c0-1.1-0.2-1.9-0.6-2.4s-0.9-0.8-1.6-0.8c-0.8,0-1.4,0.3-1.7,1s-0.5,1.6-0.5,2.8v1c0,0.2,0,0.6,0,1.1s0,1,0,1.5s0,1.1,0.1,1.7
			c0,0.6,0.1,1.1,0.1,1.5c-0.2,0-0.5-0.1-0.9-0.1c-0.3,0-0.7,0-1.1,0c-0.4,0-0.7,0-1.1,0s-0.6,0-0.9,0.1c0.1-1.4,0.1-2.8,0.2-4.2
			c0-1.4,0.1-3,0.1-4.7v-1.7C58.3,89.5,58.3,87.9,58.2,86.5z"/>
		<path class="st1" d="M76.1,95.6c0,0.7,0.1,1.3,0.2,1.9s0.4,1.1,0.6,1.6c0.3,0.4,0.7,0.8,1.1,1c0.4,0.3,1,0.4,1.5,0.4
			c1.2,0,2.3-0.4,3.2-1.2l0.3,0.2l-0.6,1.5c-0.4,0.3-1,0.6-1.6,0.8c-0.6,0.2-1.4,0.3-2.4,0.3c-0.8,0-1.7-0.1-2.4-0.4
			c-0.8-0.2-1.4-0.6-2-1.2c-0.6-0.5-1-1.2-1.4-2c-0.3-0.8-0.5-1.8-0.5-3c0-1.1,0.2-2.1,0.5-2.9s0.7-1.5,1.3-2.1s1.2-1,1.9-1.2
			s1.5-0.4,2.4-0.4c1.7,0,3,0.5,3.9,1.5s1.4,2.4,1.4,4.3v0.5c0,0.2,0,0.3,0,0.3L76.1,95.6L76.1,95.6z M80.1,94.4
			c0-1.3-0.2-2.3-0.5-3.1c-0.3-0.8-0.8-1.2-1.4-1.2c-0.4,0-0.7,0.1-1,0.4s-0.5,0.6-0.6,1s-0.3,0.9-0.4,1.4s-0.1,1-0.1,1.5
			C76.1,94.4,80.1,94.4,80.1,94.4z"/>
		<path class="st1" d="M94.2,91.1c0-1.4,0-2.7-0.1-3.8c0-1.1-0.1-2.2-0.2-3.4c0.3,0,0.6,0.1,1,0.1c0.3,0,0.7,0,1.2,0
			c0.6,0,1.2,0,1.9-0.1c0.7,0,1.3-0.1,1.9-0.1c1.2,0,2.2,0.1,2.9,0.3c0.7,0.2,1.2,0.4,1.6,0.8c0.6,0.5,1,1,1.2,1.5
			c0.3,0.6,0.4,1.2,0.4,2c0,1-0.2,1.8-0.5,2.5s-0.8,1.3-1.4,1.7c-0.6,0.4-1.3,0.8-2.1,1s-1.7,0.3-2.7,0.3H98c0,1.3,0,2.6,0,3.9
			s0.1,2.6,0.2,3.8c-0.3,0-0.6-0.1-1-0.1s-0.7,0-1.2,0c-0.4,0-0.8,0-1.2,0s-0.7,0-1,0.1c0.1-1.1,0.1-2.2,0.2-3.3
			c0-1.1,0.1-2.4,0.1-3.8L94.2,91.1L94.2,91.1z M102,88.9c0-0.7-0.1-1.2-0.2-1.7s-0.3-0.8-0.6-1.1s-0.5-0.5-0.9-0.6
			s-0.7-0.2-1.1-0.2h-0.6c-0.1,0-0.2,0-0.3,0s-0.2,0-0.2,0c0,1.2,0,2.5,0,3.7s0,2.4,0,3.6c0.4,0,0.9,0,1.3-0.1s0.9-0.3,1.3-0.5
			c0.4-0.3,0.7-0.7,0.9-1.2C101.9,90.4,102,89.8,102,88.9z"/>
		<path class="st1" d="M116.3,99.9c-0.5,0.7-1.1,1.3-1.7,1.7s-1.4,0.6-2.2,0.6c-1.3,0-2.3-0.4-3-1.1s-1.1-1.9-1.1-3.6
			c0-0.9,0-1.7,0.1-2.3c0-0.7,0.1-1.4,0.1-2s0-1.2,0-1.8c0-0.7-0.1-1.3-0.1-2c0.2,0,0.5,0.1,0.9,0.1c0.3,0,0.7,0,1.1,0s0.7,0,1.1,0
			c0.3,0,0.6-0.1,0.9-0.1c-0.1,0.9-0.2,2-0.2,3.2s-0.1,2.6-0.1,4.2c0,1.1,0.2,1.9,0.6,2.4s0.9,0.8,1.6,0.8c0.8,0,1.4-0.3,1.7-1
			c0.4-0.7,0.5-1.6,0.5-2.8v-1c0-1.1,0-2,0-3c0-0.9-0.1-1.9-0.2-2.8c0.5,0.1,1.1,0.1,1.9,0.1c0.4,0,0.8,0,1.1,0
			c0.3,0,0.6-0.1,0.9-0.1c-0.1,0.9-0.1,1.9-0.2,2.8c0,0.9,0,1.9,0,3v1c0,1.1,0,2.1,0,3s0.1,1.8,0.2,2.7c-0.3,0-0.6-0.1-0.9-0.1
			s-0.6,0-0.9,0s-0.6,0-0.9,0s-0.6,0-1,0.1L116.3,99.9L116.3,99.9z"/>
		<path class="st1" d="M123.2,91.2c0-1.7,0-3.3-0.1-4.7c0-1.4-0.1-2.9-0.2-4.3c0.2,0,0.5,0.1,0.9,0.1c0.3,0,0.7,0,1.1,0s0.7,0,1.1,0
			c0.3,0,0.6-0.1,0.9-0.1c-0.1,1.5-0.1,2.9-0.2,4.3c0,1.4-0.1,3-0.1,4.7h0.1c0.3-0.7,0.8-1.3,1.4-1.7c0.6-0.4,1.3-0.6,2.1-0.6
			c0.7,0,1.4,0.2,2,0.5s1.1,0.8,1.6,1.3c0.4,0.6,0.8,1.2,1,2s0.4,1.6,0.4,2.4c0,1.3-0.2,2.4-0.5,3.3s-0.8,1.6-1.4,2.2
			c-0.6,0.6-1.2,0.9-1.9,1.2c-0.7,0.2-1.4,0.3-2.1,0.3c-0.8,0-1.5-0.2-2.1-0.5s-1-0.7-1.4-1.3c-0.4,0.2-0.7,0.5-1.1,0.7
			c-0.4,0.3-0.8,0.5-1.1,0.8H123c0.1-1.5,0.1-2.9,0.2-4.3c0-1.4,0.1-3,0.1-4.7L123.2,91.2L123.2,91.2z M126.6,95.7
			c0,0.8,0,1.5,0.1,2.1c0.1,0.7,0.2,1.2,0.3,1.7s0.4,0.9,0.7,1.1s0.7,0.4,1.1,0.4c0.7,0,1.3-0.5,1.8-1.4c0.4-0.9,0.7-2.4,0.7-4.6
			c0-3-0.7-4.5-2.2-4.5c-0.4,0-0.7,0.1-1,0.3c-0.3,0.2-0.6,0.5-0.8,0.9c-0.2,0.4-0.4,0.9-0.5,1.6C126.7,93.9,126.6,94.7,126.6,95.7z
			"/>
		<path class="st1" d="M138.1,86.5c0-1.4-0.1-2.9-0.2-4.3c0.2,0,0.5,0.1,0.9,0.1c0.3,0,0.7,0,1.1,0c0.4,0,0.7,0,1.1,0
			c0.3,0,0.6-0.1,0.9-0.1c-0.1,1.5-0.1,2.9-0.2,4.3c0,1.4-0.1,3-0.1,4.7v1.7c0,1.7,0,3.3,0.1,4.7c0,1.4,0.1,2.8,0.2,4.2
			c-0.2,0-0.5-0.1-0.9-0.1s-0.7,0-1.1,0c-0.4,0-0.7,0-1.1,0c-0.3,0-0.6,0-0.9,0.1c0.1-1.4,0.1-2.8,0.2-4.2c0-1.4,0.1-3,0.1-4.7v-1.7
			C138.2,89.5,138.1,87.9,138.1,86.5z"/>
		<path class="st1" d="M145.3,84.4c0-0.6,0.2-1.1,0.6-1.5c0.4-0.4,0.9-0.6,1.5-0.6s1.1,0.2,1.5,0.6s0.6,0.9,0.6,1.5
			s-0.2,1.1-0.6,1.5c-0.4,0.4-0.9,0.6-1.5,0.6s-1.1-0.2-1.5-0.6C145.5,85.4,145.3,84.9,145.3,84.4z M145.6,95.1c0-1.1,0-2,0-3
			c0-0.9-0.1-1.9-0.2-2.8c0.2,0,0.5,0.1,0.9,0.1c0.3,0,0.7,0,1.1,0c0.8,0,1.5,0,1.9-0.1c-0.1,0.9-0.1,1.9-0.2,2.8c0,0.9,0,1.9,0,3v1
			c0,1.1,0,2.1,0,3s0.1,1.8,0.2,2.7c-0.2,0-0.5-0.1-0.8-0.1s-0.7,0-1.1,0c-0.4,0-0.8,0-1.1,0s-0.6,0-0.9,0.1
			c0.1-0.9,0.1-1.8,0.2-2.7c0-0.9,0-1.9,0-3L145.6,95.1L145.6,95.1z"/>
		<path class="st1" d="M161.3,91c-0.4-0.5-1-0.7-1.8-0.7c-1,0-1.8,0.5-2.3,1.4s-0.8,2.3-0.8,3.9s0.3,2.8,1,3.6
			c0.7,0.8,1.6,1.3,2.9,1.3c0.5,0,1.1-0.1,1.6-0.4s0.9-0.5,1.1-0.8l0.3,0.3c-0.1,0.2-0.2,0.5-0.3,0.8s-0.2,0.5-0.3,0.8
			c-0.4,0.3-0.9,0.5-1.4,0.7c-0.6,0.2-1.3,0.3-2.1,0.3c-1.3,0-2.3-0.2-3.2-0.5c-0.9-0.4-1.6-0.9-2.1-1.5s-0.9-1.3-1.1-2.1
			c-0.2-0.8-0.3-1.6-0.3-2.4c0-1,0.2-1.8,0.5-2.7c0.3-0.8,0.8-1.5,1.4-2.1c0.6-0.6,1.3-1.1,2.2-1.4c0.8-0.3,1.8-0.5,2.8-0.5
			s1.8,0.1,2.5,0.3c0.7,0.2,1.3,0.5,2,0.9c-0.2,0.3-0.4,0.8-0.6,1.3c-0.2,0.5-0.3,1-0.4,1.4h-0.6C162,92.1,161.7,91.5,161.3,91z"/>
		<path class="st1" d="M174.3,87.3c0-1.1-0.1-2.2-0.2-3.4c0.3,0,0.6,0.1,1,0.1c0.3,0,0.7,0,1.2,0c0.4,0,0.8,0,1.2,0
			c0.3,0,0.7-0.1,1-0.1c-0.1,1.1-0.1,2.2-0.2,3.4c0,1.1-0.1,2.4-0.1,3.8v3.5c0,1,0,1.9,0,2.9c0,0.9,0,1.7,0,2.4c1,0,2,0,3-0.1
			s2-0.1,3-0.3c0,0.2-0.1,0.4-0.1,0.5c0,0.2,0,0.4,0,0.7s0,0.5,0,0.6s0,0.3,0.1,0.4c-0.5,0-1,0-1.7,0s-1.6,0-2.8,0
			c-1.1,0-1.9,0-2.6,0c-0.6,0-1.2,0-1.5,0s-0.7,0-0.9,0s-0.4,0-0.5,0c0.1-1.1,0.1-2.2,0.2-3.3c0-1.1,0.1-2.4,0.1-3.8v-3.5
			C174.3,89.7,174.3,88.4,174.3,87.3z"/>
		<path class="st1" d="M186.8,84.4c0-0.6,0.2-1.1,0.6-1.5c0.4-0.4,0.9-0.6,1.5-0.6s1.1,0.2,1.5,0.6s0.6,0.9,0.6,1.5
			s-0.2,1.1-0.6,1.5c-0.4,0.4-0.9,0.6-1.5,0.6s-1.1-0.2-1.5-0.6C187,85.4,186.8,84.9,186.8,84.4z M187.1,95.1c0-1.1,0-2,0-3
			c0-0.9-0.1-1.9-0.2-2.8c0.2,0,0.5,0.1,0.9,0.1c0.3,0,0.7,0,1.1,0c0.8,0,1.5,0,1.9-0.1c-0.1,0.9-0.1,1.9-0.2,2.8c0,0.9,0,1.9,0,3v1
			c0,1.1,0,2.1,0,3s0.1,1.8,0.2,2.7c-0.2,0-0.5-0.1-0.8-0.1s-0.7,0-1.1,0c-0.4,0-0.8,0-1.1,0s-0.6,0-0.9,0.1
			c0.1-0.9,0.1-1.8,0.2-2.7c0-0.9,0-1.9,0-3L187.1,95.1L187.1,95.1z"/>
		<path class="st1" d="M194.3,91.2c0-1.7,0-3.3-0.1-4.7c0-1.4-0.1-2.9-0.2-4.3c0.2,0,0.5,0.1,0.9,0.1c0.3,0,0.7,0,1.1,0
			c0.4,0,0.7,0,1.1,0c0.3,0,0.6-0.1,0.9-0.1c-0.1,1.5-0.1,2.9-0.2,4.3c0,1.4-0.1,3-0.1,4.7h0.1c0.3-0.7,0.8-1.3,1.4-1.7
			c0.6-0.4,1.3-0.6,2.1-0.6c0.7,0,1.4,0.2,2,0.5s1.1,0.8,1.6,1.3c0.4,0.6,0.8,1.2,1,2s0.4,1.6,0.4,2.4c0,1.3-0.2,2.4-0.5,3.3
			s-0.8,1.6-1.4,2.2c-0.6,0.6-1.2,0.9-1.9,1.2c-0.7,0.2-1.4,0.3-2.1,0.3c-0.8,0-1.5-0.2-2.1-0.5s-1-0.7-1.4-1.3
			c-0.4,0.2-0.7,0.5-1.1,0.7c-0.4,0.3-0.8,0.5-1.1,0.8h-0.6c0.1-1.5,0.1-2.9,0.2-4.3c0-1.4,0.1-3,0.1-4.7L194.3,91.2L194.3,91.2z
			 M197.8,95.7c0,0.8,0,1.5,0.1,2.1c0.1,0.7,0.2,1.2,0.3,1.7s0.4,0.9,0.7,1.1s0.7,0.4,1.1,0.4c0.7,0,1.3-0.5,1.8-1.4
			c0.4-0.9,0.7-2.4,0.7-4.6c0-3-0.7-4.5-2.2-4.5c-0.4,0-0.7,0.1-1,0.3c-0.3,0.2-0.6,0.5-0.8,0.9s-0.4,0.9-0.5,1.6
			C197.9,93.9,197.8,94.7,197.8,95.7z"/>
		<path class="st1" d="M212.6,92.5c0.5-1.2,1-2.1,1.6-2.6c0.6-0.6,1.4-0.8,2.3-0.8c0.1,0,0.2,0,0.2,0c0.1,0,0.1,0,0.2,0
			c-0.1,0.3-0.1,0.5-0.1,0.8s0,0.6,0,1v0.8c0,0.1,0,0.3,0,0.4s0,0.3,0,0.4l-0.2,0.2c-0.2-0.1-0.4-0.2-0.6-0.3
			c-0.2-0.1-0.5-0.1-0.7-0.1c-0.8,0-1.4,0.3-1.8,0.8c-0.5,0.5-0.7,1.1-0.7,1.8v1c0,1.1,0,2.1,0,3s0.1,1.8,0.2,2.7
			c-0.2,0-0.5-0.1-0.8-0.1s-0.7,0-1.1,0s-0.8,0-1.1,0s-0.6,0-0.9,0.1c0.1-0.9,0.1-1.8,0.2-2.7s0-1.9,0-3v-1c0-1.1,0-2,0-3
			c0-0.9-0.1-1.9-0.2-2.8c0.3,0,0.6,0.1,0.9,0.1c0.3,0,0.6,0,0.9,0s0.6,0,0.9,0c0.3,0,0.6-0.1,0.9-0.1L212.6,92.5L212.6,92.5z"/>
		<path class="st1" d="M219,90.8c0.7-0.6,1.5-1,2.4-1.4c0.8-0.3,1.7-0.5,2.5-0.5c0.7,0,1.3,0.1,1.9,0.2c0.6,0.2,1.1,0.4,1.5,0.7
			c0.4,0.3,0.8,0.8,1,1.3s0.4,1.2,0.4,1.9c0,1.1,0,2.1,0,3.1c0,0.9,0,1.9,0,2.8c0,0.4,0,0.7,0.1,1c0.1,0.2,0.2,0.4,0.3,0.5
			s0.3,0.2,0.5,0.2s0.4,0.1,0.7,0.1v0.6c-0.5,0.2-0.9,0.4-1.3,0.5c-0.3,0.1-0.7,0.2-1.1,0.2c-0.6,0-1.2-0.2-1.6-0.5
			c-0.4-0.3-0.7-0.8-0.9-1.4c-0.4,0.6-0.9,1-1.4,1.3s-1.2,0.5-2,0.5c-0.7,0-1.2-0.1-1.7-0.3s-0.9-0.4-1.2-0.7
			c-0.3-0.3-0.5-0.7-0.7-1.1c-0.1-0.4-0.2-0.8-0.2-1.2c0-0.6,0.1-1.1,0.3-1.5s0.4-0.8,0.8-1.1c0.3-0.3,0.7-0.5,1.2-0.7
			s1-0.4,1.6-0.5c0.7-0.2,1.3-0.3,1.7-0.5c0.4-0.1,0.7-0.3,0.9-0.4s0.3-0.3,0.4-0.4c0.1-0.2,0.1-0.3,0.1-0.6c0-0.6-0.2-1.2-0.7-1.6
			c-0.4-0.4-1.1-0.7-1.8-0.7c-0.3,0-0.6,0-0.9,0.1c-0.3,0.1-0.6,0.2-0.9,0.3s-0.5,0.3-0.8,0.5c-0.2,0.2-0.4,0.3-0.5,0.5h-0.2
			L219,90.8z M225.2,97.8c0-0.7,0-1.3,0-1.7c0-0.4,0-0.7,0-1c-0.4,0.2-0.7,0.4-1.2,0.5s-0.8,0.3-1.1,0.5s-0.6,0.5-0.8,0.8
			s-0.3,0.8-0.3,1.5c0,0.6,0.1,1.1,0.4,1.5s0.6,0.5,1.1,0.5c0.6,0,1-0.2,1.4-0.7C225,99.3,225.2,98.7,225.2,97.8z"/>
		<path class="st1" d="M235.9,92.5c0.5-1.2,1-2.1,1.6-2.6c0.6-0.6,1.4-0.8,2.3-0.8c0.1,0,0.2,0,0.2,0c0.1,0,0.1,0,0.2,0
			c-0.1,0.3-0.1,0.5-0.1,0.8s0,0.6,0,1v0.8c0,0.1,0,0.3,0,0.4s0,0.3,0,0.4l-0.2,0.2c-0.2-0.1-0.4-0.2-0.6-0.3
			c-0.2-0.1-0.5-0.1-0.7-0.1c-0.8,0-1.4,0.3-1.8,0.8c-0.5,0.5-0.7,1.1-0.7,1.8v1c0,1.1,0,2.1,0,3s0.1,1.8,0.2,2.7
			c-0.2,0-0.5-0.1-0.8-0.1s-0.7,0-1.1,0s-0.8,0-1.1,0s-0.6,0-0.9,0.1c0.1-0.9,0.1-1.8,0.2-2.7s0-1.9,0-3v-1c0-1.1,0-2,0-3
			c0-0.9-0.1-1.9-0.2-2.8c0.3,0,0.6,0.1,0.9,0.1c0.3,0,0.6,0,0.9,0s0.6,0,0.9,0c0.3,0,0.6-0.1,0.9-0.1L235.9,92.5L235.9,92.5z"/>
		<path class="st1" d="M248.6,97.4c0.3-0.8,0.6-1.5,0.9-2.2s0.5-1.3,0.7-2c0.2-0.6,0.5-1.3,0.7-1.9s0.4-1.3,0.7-2
			c0.2,0,0.4,0.1,0.5,0.1c0.2,0,0.3,0,0.5,0s0.3,0,0.5,0s0.4-0.1,0.6-0.1c-0.1,0.2-0.3,0.7-0.6,1.4c-0.3,0.7-0.7,1.6-1.2,2.7
			s-1,2.3-1.5,3.6c-0.6,1.3-1.1,2.6-1.7,4c-0.6,1.3-1.1,2.7-1.6,4s-1,2.5-1.4,3.6c-0.2,0-0.4-0.1-0.5-0.1s-0.4,0-0.5,0s-0.4,0-0.5,0
			s-0.4,0.1-0.5,0.1c0.6-1.1,1.1-2.3,1.7-3.4c0.6-1.1,1.1-2.2,1.6-3.4c-0.4-1-0.9-2.1-1.4-3.4c-0.5-1.2-1-2.5-1.5-3.7
			s-0.9-2.3-1.4-3.3c-0.4-1-0.7-1.7-0.9-2.3c0.3,0,0.7,0.1,1,0.1s0.6,0,1,0s0.7,0,1,0s0.6-0.1,1-0.1c0.5,1.4,1,2.7,1.5,4.1
			C247.5,94.7,248,96.1,248.6,97.4z"/>
		<path class="st1" d="M262.7,95.9c0-1.2,0.2-2.2,0.5-3c0.4-0.9,0.8-1.6,1.4-2.2s1.3-1,2-1.3c0.8-0.3,1.6-0.4,2.4-0.4
			c2,0,3.6,0.6,4.7,1.7s1.7,2.7,1.7,4.7c0,1.1-0.2,2-0.5,2.9c-0.3,0.8-0.8,1.6-1.3,2.2c-0.6,0.6-1.2,1-2,1.3s-1.6,0.4-2.6,0.4
			c-0.8,0-1.5-0.1-2.3-0.3c-0.8-0.2-1.4-0.6-2-1.1s-1.1-1.1-1.5-1.9C262.9,98,262.7,97,262.7,95.9z M271.6,94.9
			c0-1.5-0.2-2.7-0.6-3.5s-1-1.3-1.9-1.3c-0.8,0-1.4,0.5-1.9,1.4s-0.7,2.4-0.7,4.4c0,0.7,0,1.4,0.1,2s0.2,1.2,0.4,1.6
			c0.2,0.5,0.5,0.8,0.8,1.1s0.7,0.4,1.2,0.4C270.8,101,271.6,99,271.6,94.9z"/>
		<path class="st1" d="M284.8,89.8c0,0.1,0,0.2,0,0.3c0,0.1,0,0.2,0,0.3c0,0.1,0,0.2,0.1,0.3l-2.4-0.1v2.2c0,1.7,0,3.3,0.1,4.7
			c0,1.4,0.1,2.8,0.2,4.2c-0.2,0-0.5-0.1-0.9-0.1s-0.7,0-1.1,0s-0.7,0-1.1,0c-0.3,0-0.6,0-0.9,0.1c0.1-1.4,0.1-2.8,0.2-4.2
			c0-1.4,0.1-3,0.1-4.7v-2.1h-1.8c0.1-0.2,0.1-0.4,0.1-0.6s0-0.4-0.1-0.7l1.8,0.1c0.2-1.1,0.4-2,0.7-2.9c0.3-0.9,0.6-1.7,1-2.3
			c0.4-0.7,1-1.2,1.6-1.5c0.6-0.4,1.4-0.6,2.4-0.6c0.3,0,0.7,0,1.1,0.1c-0.1,0.3-0.1,0.7-0.1,1.1s0,0.9,0,1.4v0.9l-0.3,0.1
			c-0.3-0.2-0.7-0.4-1.2-0.5c-0.5-0.2-0.9-0.2-1.3-0.2c-0.5,0-0.9,0.1-1.2,0.2s-0.4,0.5-0.4,0.9s0.1,0.9,0.4,1.5s0.5,1.2,0.9,1.8
			l2.4-0.1C284.8,89.6,284.8,89.7,284.8,89.8z"/>
		<path class="st1" d="M300.3,90c0.3-0.6,0.7-1.3,1-2s0.6-1.4,1-2.1c0.3-0.7,0.6-1.4,0.9-2c0.2,0,0.4,0.1,0.6,0.1s0.4,0,0.6,0
			s0.4,0,0.6,0s0.4-0.1,0.6-0.1c-0.3,0.5-0.7,1.1-1.1,1.9s-0.9,1.6-1.4,2.6c-0.5,0.9-1,1.9-1.5,2.8c-0.5,1-1,1.8-1.4,2.7
			c0,0.4,0,0.8,0,1.3c0,0.4,0,0.9,0,1.3c0,0.9,0,1.8,0,2.6c0,0.9,0.1,1.8,0.2,2.7c-0.4,0-0.7-0.1-1.1-0.1s-0.7,0-1.1,0s-0.7,0-1.1,0
			s-0.7,0-1.1,0.1c0-0.8,0.1-1.6,0.2-2.4s0.1-1.7,0.1-2.5c0-0.4,0-0.8,0-1.2s0-0.8,0-1.2c-0.4-0.9-0.9-1.8-1.5-2.9s-1.1-2.1-1.6-3.1
			s-1-1.9-1.5-2.7c-0.4-0.8-0.8-1.4-1-1.8c0.4,0,0.8,0.1,1.2,0.1c0.4,0,0.8,0,1.2,0c0.4,0,0.8,0,1.2,0c0.4,0,0.8-0.1,1.2-0.1
			c0.3,0.6,0.6,1.4,1,2.1c0.4,0.8,0.7,1.5,1.1,2.3c0.4,0.7,0.7,1.4,1,2s0.6,1.1,0.8,1.4h0.1C299.7,91.2,300,90.7,300.3,90z"/>
		<path class="st1" d="M312.3,99.9c-0.5,0.7-1.1,1.3-1.7,1.7s-1.4,0.6-2.2,0.6c-1.3,0-2.3-0.4-3-1.1s-1.1-1.9-1.1-3.6
			c0-0.9,0-1.7,0.1-2.3c0-0.7,0.1-1.4,0.1-2s0-1.2,0-1.8c0-0.7-0.1-1.3-0.1-2c0.2,0,0.5,0.1,0.9,0.1c0.3,0,0.7,0,1.1,0s0.7,0,1.1,0
			c0.3,0,0.6-0.1,0.9-0.1c-0.1,0.9-0.2,2-0.2,3.2s-0.1,2.6-0.1,4.2c0,1.1,0.2,1.9,0.6,2.4s0.9,0.8,1.6,0.8c0.8,0,1.4-0.3,1.7-1
			c0.4-0.7,0.5-1.6,0.5-2.8v-1c0-1.1,0-2,0-3c0-0.9-0.1-1.9-0.2-2.8c0.5,0.1,1.1,0.1,1.9,0.1c0.4,0,0.8,0,1.1,0
			c0.3,0,0.6-0.1,0.9-0.1c-0.1,0.9-0.1,1.9-0.2,2.8c0,0.9,0,1.9,0,3v1c0,1.1,0,2.1,0,3s0.1,1.8,0.2,2.7c-0.3,0-0.6-0.1-0.9-0.1
			s-0.6,0-0.9,0s-0.6,0-0.9,0s-0.6,0-1,0.1L312.3,99.9L312.3,99.9z"/>
		<path class="st1" d="M322.7,91.2c0.5-0.7,1.1-1.3,1.7-1.7c0.7-0.4,1.4-0.6,2.2-0.6c1.3,0,2.3,0.4,3,1.1s1.1,2,1.1,3.7
			c0,0.9,0,1.7-0.1,2.3c0,0.7-0.1,1.4-0.1,2s0,1.2,0,1.8c0,0.6,0.1,1.3,0.1,1.9c-0.2,0-0.5-0.1-0.9-0.1s-0.7,0-1.1,0s-0.7,0-1.1,0
			c-0.3,0-0.6,0-0.9,0.1c0.1-0.9,0.2-2,0.2-3.2s0.1-2.6,0.1-4.2c0-1.1-0.2-1.9-0.6-2.4s-0.9-0.8-1.6-0.8c-0.8,0-1.4,0.3-1.7,1
			s-0.5,1.6-0.5,2.8v1c0,1.1,0,2.1,0,3s0.1,1.8,0.2,2.7c-0.2,0-0.5-0.1-0.8-0.1s-0.7,0-1.1,0s-0.8,0-1.1,0s-0.6,0-0.9,0.1
			c0.1-0.9,0.1-1.8,0.2-2.7c0-0.9,0-1.9,0-3v-1c0-1.1,0-2,0-3c0-0.9-0.1-1.9-0.2-2.8c0.3,0,0.6,0.1,0.9,0.1s0.6,0,0.9,0s0.6,0,0.9,0
			s0.6-0.1,1-0.1L322.7,91.2L322.7,91.2z"/>
		<path class="st1" d="M334.2,86.5c0-1.4-0.1-2.9-0.2-4.3c0.2,0,0.5,0.1,0.9,0.1c0.3,0,0.7,0,1.1,0s0.7,0,1.1,0
			c0.3,0,0.6-0.1,0.9-0.1c-0.1,1.5-0.1,2.9-0.2,4.3c0,1.4-0.1,3-0.1,4.7v1.7c0,1.7,0,3.3,0.1,4.7c0,1.4,0.1,2.8,0.2,4.2
			c-0.2,0-0.5-0.1-0.9-0.1s-0.7,0-1.1,0s-0.7,0-1.1,0c-0.3,0-0.6,0-0.9,0.1c0.1-1.4,0.1-2.8,0.2-4.2c0-1.4,0.1-3,0.1-4.7v-1.7
			C334.2,89.5,334.2,87.9,334.2,86.5z"/>
		<path class="st1" d="M341.4,84.4c0-0.6,0.2-1.1,0.6-1.5s0.9-0.6,1.5-0.6s1.1,0.2,1.5,0.6s0.6,0.9,0.6,1.5s-0.2,1.1-0.6,1.5
			s-0.9,0.6-1.5,0.6s-1.1-0.2-1.5-0.6C341.6,85.4,341.4,84.9,341.4,84.4z M341.7,95.1c0-1.1,0-2,0-3c0-0.9-0.1-1.9-0.2-2.8
			c0.2,0,0.5,0.1,0.9,0.1c0.3,0,0.7,0,1.1,0c0.8,0,1.5,0,1.9-0.1c-0.1,0.9-0.1,1.9-0.2,2.8c0,0.9,0,1.9,0,3v1c0,1.1,0,2.1,0,3
			s0.1,1.8,0.2,2.7c-0.2,0-0.5-0.1-0.8-0.1s-0.7,0-1.1,0s-0.8,0-1.1,0c-0.3,0-0.6,0-0.9,0.1c0.1-0.9,0.1-1.8,0.2-2.7
			c0-0.9,0-1.9,0-3V95.1z"/>
		<path class="st1" d="M352.4,91.2c0.5-0.7,1.1-1.3,1.7-1.7c0.7-0.4,1.4-0.6,2.2-0.6c1.3,0,2.3,0.4,3,1.1s1.1,2,1.1,3.7
			c0,0.9,0,1.7-0.1,2.3c0,0.7-0.1,1.4-0.1,2s0,1.2,0,1.8c0,0.6,0.1,1.3,0.1,1.9c-0.2,0-0.5-0.1-0.9-0.1s-0.7,0-1.1,0s-0.7,0-1.1,0
			c-0.3,0-0.6,0-0.9,0.1c0.1-0.9,0.2-2,0.2-3.2s0.1-2.6,0.1-4.2c0-1.1-0.2-1.9-0.6-2.4s-0.9-0.8-1.6-0.8c-0.8,0-1.4,0.3-1.7,1
			s-0.5,1.6-0.5,2.8v1c0,1.1,0,2.1,0,3s0.1,1.8,0.2,2.7c-0.2,0-0.5-0.1-0.8-0.1s-0.7,0-1.1,0s-0.8,0-1.1,0s-0.6,0-0.9,0.1
			c0.1-0.9,0.1-1.8,0.2-2.7c0-0.9,0-1.9,0-3v-1c0-1.1,0-2,0-3c0-0.9-0.1-1.9-0.2-2.8c0.3,0,0.6,0.1,0.9,0.1s0.6,0,0.9,0s0.6,0,0.9,0
			s0.6-0.1,1-0.1L352.4,91.2L352.4,91.2z"/>
		<path class="st1" d="M385.5,100c-0.1,0.4-0.2,0.7-0.2,1.1c-1.4,0.7-3.2,1.1-5.3,1.1c-1.5,0-2.9-0.2-4-0.6c-1.2-0.4-2.2-1-3-1.8
			s-1.5-1.7-1.9-2.7c-0.4-1.1-0.6-2.2-0.6-3.4c0-1.8,0.3-3.3,0.8-4.6c0.6-1.3,1.3-2.3,2.3-3.1c0.9-0.8,2-1.4,3.3-1.7
			c1.2-0.4,2.6-0.5,3.9-0.5c0.5,0,0.9,0,1.4,0.1s1,0.2,1.5,0.3c0.5,0.1,0.9,0.2,1.3,0.4s0.8,0.3,1.1,0.5c-0.2,0.4-0.3,0.9-0.4,1.3
			s-0.2,0.9-0.2,1.3h-0.4c-0.7-0.8-1.3-1.4-2-1.8s-1.5-0.5-2.4-0.5c-0.7,0-1.4,0.2-2.1,0.5s-1.3,0.8-1.9,1.4s-1,1.5-1.4,2.5
			s-0.5,2.2-0.5,3.6c0,1.3,0.2,2.5,0.5,3.4c0.4,0.9,0.8,1.7,1.4,2.3c0.6,0.6,1.2,1,2,1.3c0.7,0.3,1.5,0.4,2.2,0.4
			c0.4,0,0.8,0,1.3-0.1c0.4-0.1,0.9-0.2,1.3-0.4c0.4-0.2,0.8-0.4,1.2-0.6c0.4-0.2,0.7-0.5,1-0.8l0.3,0.2
			C385.8,99.2,385.6,99.6,385.5,100z"/>
		<path class="st1" d="M388,95.9c0-1.2,0.2-2.2,0.5-3c0.4-0.9,0.8-1.6,1.4-2.2s1.3-1,2-1.3c0.8-0.3,1.6-0.4,2.4-0.4
			c2,0,3.6,0.6,4.7,1.7s1.7,2.7,1.7,4.7c0,1.1-0.2,2-0.5,2.9c-0.3,0.8-0.8,1.6-1.3,2.2c-0.6,0.6-1.2,1-2,1.3s-1.6,0.4-2.6,0.4
			c-0.8,0-1.5-0.1-2.3-0.3c-0.8-0.2-1.4-0.6-2-1.1s-1.1-1.1-1.5-1.9C388.2,98,388,97,388,95.9z M396.9,94.9c0-1.5-0.2-2.7-0.6-3.5
			s-1-1.3-1.9-1.3c-0.8,0-1.4,0.5-1.9,1.4s-0.7,2.4-0.7,4.4c0,0.7,0,1.4,0.1,2s0.2,1.2,0.4,1.6c0.2,0.5,0.5,0.8,0.8,1.1
			s0.7,0.4,1.2,0.4C396,101,396.9,99,396.9,94.9z"/>
		<path class="st1" d="M411.2,99.9c-0.5,0.7-1.1,1.3-1.7,1.7s-1.4,0.6-2.2,0.6c-1.3,0-2.3-0.4-3-1.1s-1.1-1.9-1.1-3.6
			c0-0.9,0-1.7,0.1-2.3c0-0.7,0.1-1.4,0.1-2s0-1.2,0-1.8c0-0.7-0.1-1.3-0.1-2c0.2,0,0.5,0.1,0.9,0.1c0.3,0,0.7,0,1.1,0s0.7,0,1.1,0
			c0.3,0,0.6-0.1,0.9-0.1c-0.1,0.9-0.2,2-0.2,3.2s-0.1,2.6-0.1,4.2c0,1.1,0.2,1.9,0.6,2.4s0.9,0.8,1.6,0.8c0.8,0,1.4-0.3,1.7-1
			c0.4-0.7,0.5-1.6,0.5-2.8v-1c0-1.1,0-2,0-3c0-0.9-0.1-1.9-0.2-2.8c0.5,0.1,1.1,0.1,1.9,0.1c0.4,0,0.8,0,1.1,0
			c0.3,0,0.6-0.1,0.9-0.1c-0.1,0.9-0.1,1.9-0.2,2.8c0,0.9,0,1.9,0,3v1c0,1.1,0,2.1,0,3s0.1,1.8,0.2,2.7c-0.3,0-0.6-0.1-0.9-0.1
			s-0.6,0-0.9,0s-0.6,0-0.9,0s-0.6,0-1,0.1L411.2,99.9L411.2,99.9z"/>
		<path class="st1" d="M421.6,91.2c0.5-0.7,1.1-1.3,1.7-1.7c0.7-0.4,1.4-0.6,2.2-0.6c1.3,0,2.3,0.4,3,1.1s1.1,2,1.1,3.7
			c0,0.9,0,1.7-0.1,2.3c0,0.7-0.1,1.4-0.1,2s0,1.2,0,1.8c0,0.6,0.1,1.3,0.1,1.9c-0.2,0-0.5-0.1-0.9-0.1s-0.7,0-1.1,0s-0.7,0-1.1,0
			c-0.3,0-0.6,0-0.9,0.1c0.1-0.9,0.2-2,0.2-3.2s0.1-2.6,0.1-4.2c0-1.1-0.2-1.9-0.6-2.4s-0.9-0.8-1.6-0.8c-0.8,0-1.4,0.3-1.7,1
			s-0.5,1.6-0.5,2.8v1c0,1.1,0,2.1,0,3s0.1,1.8,0.2,2.7c-0.2,0-0.5-0.1-0.8-0.1s-0.7,0-1.1,0s-0.8,0-1.1,0s-0.6,0-0.9,0.1
			c0.1-0.9,0.1-1.8,0.2-2.7c0-0.9,0-1.9,0-3v-1c0-1.1,0-2,0-3c0-0.9-0.1-1.9-0.2-2.8c0.3,0,0.6,0.1,0.9,0.1s0.6,0,0.9,0s0.6,0,0.9,0
			s0.6-0.1,1-0.1L421.6,91.2L421.6,91.2z"/>
		<path class="st1" d="M439.4,90.1c0,0.2,0,0.4,0.1,0.6l-2.3-0.1c0,0.4-0.1,0.9-0.1,1.4s0,1-0.1,1.6s0,1.1,0,1.6s0,0.9,0,1.3
			c0,0.9,0,1.6,0.1,2.2c0,0.6,0.1,1,0.2,1.3s0.3,0.5,0.4,0.6c0.2,0.1,0.4,0.2,0.7,0.2c0.3,0,0.6,0,0.7-0.1c0.2,0,0.3-0.1,0.5-0.2
			v1.1c-0.3,0.2-0.8,0.3-1.3,0.4s-1,0.2-1.5,0.2c-2.2,0-3.3-1.3-3.3-4c0-0.5,0-1.1,0-1.7s0-1.3,0.1-1.9c0-0.7,0-1.3,0.1-2
			c0-0.6,0-1.3,0-1.8h-1.8c0.1-0.2,0.1-0.4,0.1-0.6s0-0.4-0.1-0.7l1.8,0.1c0-0.5,0-1,0-1.5s0-1-0.1-1.7c0.6-0.2,1.2-0.5,1.8-0.8
			c0.6-0.3,1.2-0.5,1.8-0.8l0.3,0.2c0,0.3-0.1,0.6-0.1,1s-0.1,0.8-0.1,1.2c0,0.4,0,0.8-0.1,1.2c0,0.4,0,0.8,0,1.2l2.3-0.1
			C439.4,89.7,439.4,89.9,439.4,90.1z"/>
		<path class="st1" d="M445.3,92.5c0.5-1.2,1-2.1,1.6-2.6c0.6-0.6,1.4-0.8,2.3-0.8c0.1,0,0.2,0,0.2,0c0.1,0,0.1,0,0.2,0
			c-0.1,0.3-0.1,0.5-0.1,0.8s0,0.6,0,1v0.8c0,0.1,0,0.3,0,0.4s0,0.3,0,0.4l-0.2,0.2c-0.2-0.1-0.4-0.2-0.6-0.3
			c-0.2-0.1-0.5-0.1-0.7-0.1c-0.8,0-1.4,0.3-1.8,0.8c-0.5,0.5-0.7,1.1-0.7,1.8v1c0,1.1,0,2.1,0,3s0.1,1.8,0.2,2.7
			c-0.2,0-0.5-0.1-0.8-0.1s-0.7,0-1.1,0s-0.8,0-1.1,0s-0.6,0-0.9,0.1c0.1-0.9,0.1-1.8,0.2-2.7s0-1.9,0-3v-1c0-1.1,0-2,0-3
			c0-0.9-0.1-1.9-0.2-2.8c0.3,0,0.6,0.1,0.9,0.1s0.6,0,0.9,0s0.6,0,0.9,0s0.6-0.1,0.9-0.1L445.3,92.5L445.3,92.5z"/>
		<path class="st1" d="M458,97.4c0.3-0.8,0.6-1.5,0.9-2.2s0.5-1.3,0.7-2c0.2-0.6,0.5-1.3,0.7-1.9s0.4-1.3,0.7-2
			c0.2,0,0.4,0.1,0.5,0.1c0.2,0,0.3,0,0.5,0s0.3,0,0.5,0s0.4-0.1,0.6-0.1c-0.1,0.2-0.3,0.7-0.6,1.4c-0.3,0.7-0.7,1.6-1.2,2.7
			s-1,2.3-1.5,3.6c-0.6,1.3-1.1,2.6-1.7,4c-0.6,1.3-1.1,2.7-1.6,4s-1,2.5-1.4,3.6c-0.2,0-0.4-0.1-0.5-0.1s-0.4,0-0.5,0s-0.4,0-0.5,0
			s-0.4,0.1-0.5,0.1c0.6-1.1,1.1-2.3,1.7-3.4s1.1-2.2,1.6-3.4c-0.4-1-0.9-2.1-1.4-3.4c-0.5-1.2-1-2.5-1.5-3.7s-0.9-2.3-1.4-3.3
			c-0.4-1-0.7-1.7-0.9-2.3c0.3,0,0.7,0.1,1,0.1s0.6,0,1,0s0.7,0,1,0s0.6-0.1,1-0.1c0.5,1.4,1,2.7,1.5,4.1
			C456.9,94.7,457.4,96.1,458,97.4z"/>
	</g>
	<rect x="12" y="94" class="st1" width="21.9" height="2"/>
	<rect x="469.9" y="94" class="st1" width="28.1" height="2"/>
</g>
<g class="st0">
	<path class="st1" d="M58.2,68.7c-1.7-2.3-3.5-4.3-5.3-6.4c-9.1,2.5-22.3,4.5-35.8,5.2l-1.7-7.8l8.8,0.2c1.6-2.5,3-5,4.1-7.6H12.6
		v-3.7h51.2v3.7H37.9c-2.3,2.8-4.9,5.2-7.9,7.6c7.1-0.1,13.9-0.3,19.8-0.7c-1.3-1.3-2.6-2.5-4-3.8l1.7-2.6c5,2,11.4,5.6,16.3,9.8
		L58.2,68.7z M20,34.3h-6.9V21.7h21.2v-3.5H17v-3.7h42.7v3.7H42v3.5h21.4v12.6h-6.8v-8.9H41.8v14.9h-7.1V25.4H20V34.3z M19.8,41.7
		h36.7v3.7H19.8V41.7z M33.1,31.5H21.5v-3.2h11.6V31.5z M21.5,34.8h11.6V38H21.5V34.8z M54.9,28.3v3.2H43.5v-3.2H54.9z M43.5,34.7
		H55V38H43.5V34.7z"/>
	<path class="st1" d="M91.3,38.9v29h-7.6V42.7c-2.2,4.9-5.6,10-8.9,13.4l-2.3-2c3.5-5.6,7.8-14.2,9.8-25.3h-7.6v-3.7h9V12.4h7.6
		v12.7H98v3.7h-6.7v3.8c3.2,2.6,6.9,6.2,9.1,9.4L95,46.3C93.9,43.8,92.6,41.2,91.3,38.9z M121.9,56.5c-3.2-4.3-5.6-10.8-7.1-16.9V68
		h-7.6V41.4c-2.6,5.8-6.8,12-11.6,16l-2.2-2.3c5-6.4,10-15.2,12.5-26.3h-6.4v-3.7h7.8V12.4h7.6v12.7h9.8v3.7h-9.5
		c2.6,9.4,7.4,16.5,12.9,22.1L121.9,56.5z"/>
	<path class="st1" d="M177.7,44.9v17.3c0,6.6-6,7.4-13.6,3.3l0.8-2.9c5.2,0.7,5.9,0.4,5.9-2.2v-9.8c-2.3,5.9-6.1,11.9-10.8,15.5
		l-2-2.1c1.6-2.2,2.9-4.5,4-6.8l-5.2,2.9c-1.1-3.4-2.6-7.4-4.2-10.4v18h-7.1V51.6c-1.7,5.2-4.5,10.7-8.5,15.1l-2.2-1.7
		c2.8-5.1,4.3-11.2,5.1-16.9l5.5,1.6V46h-10.1v-3.6h3.2V15.1H159v27.3h2.5V46h-8.9v3.5l2.2-1.6c2.7,2.5,5.7,6.1,7.4,8.8
		c1.3-2.9,2.2-5.8,2.8-8.7l5.9,1.9v-3.7c-2.9,0.5-5.6,0.8-7.9,1l-1.3-6.4c1.9,0.1,3.8,0.1,5.6,0.1c1.7-1.9,3.5-4.3,5.2-7
		c-3.1,1-6.2,1.6-9.4,2l-1.4-6.3c1.5,0.1,2.9,0.2,4.3,0.2c1.4-3.1,2.3-6.1,3.1-9.1c-2.5,0.3-5,0.5-7.5,0.7l-0.5-2.8
		c7.8-1.3,14.9-4.1,19.9-7.2l5.3,5c-3.8,1.6-7.9,2.8-12.2,3.5l2.1,0.7c-1.7,3.4-3.8,6.6-6.2,9.3c1.7,0,3.3-0.1,5-0.2
		c1.1-2.2,2.2-4.4,3-6.8l6.4,3c-3.5,6.7-8,11.6-12.3,15.1c3.1-0.1,6.1-0.3,9.2-0.6c-0.5-1.6-1.1-3.1-1.7-4.4l2.4-1.3
		c2.8,3.1,5.9,8.2,7.3,11.8l-5.5,2.2c-0.4-1.6-0.9-3.4-1.4-5.2C180.7,44,179.3,44.4,177.7,44.9z M152.3,18.5H145v3.7h7.3V18.5z
		 M152.3,25.4H145v3.5h7.3V25.4z M152.3,32.1H145v3.7h7.3V32.1z M152.3,38.9H145v3.5h7.3V38.9z M189.6,62.2l-6.4,2.6
		c-1.3-5.4-3.3-11.2-5-15.7l2.5-1.4C184.2,51.9,187.5,57.2,189.6,62.2z"/>
</g>
<g class="st0">
	<path class="st2" d="M197.6,46.6l-1.9-2.5c6.7-7,11.9-16.5,14.9-28.4l8.5,3.1C215,29.4,206.8,40.8,197.6,46.6z M247,63.3l-8,4.5
		c-1-2.7-2.3-5.7-3.8-8.8c-9.3,3.4-22.1,5.9-32.8,7l-2.2-9.1c2.6,0.1,5.4,0.1,8.2,0c3.8-6.9,7.5-16.7,9.4-24.8l8.9,3.4
		c-3.2,7.3-8.5,15.5-13.1,21.3c7.1-0.2,14.3-0.8,19.9-1.4c-1.5-3-3.1-6-4.7-8.7l2.6-2C237.4,50.1,243,56.7,247,63.3z M230.5,18.9
		h-9.4V15h12.5c2.2,11.8,9.4,19,17.6,23.5l-6,8.2C237.2,40.7,232.1,30,230.5,18.9z"/>
	<path class="st2" d="M258.1,65.7c6.5-4,12.6-9.8,17.3-16.9l8,4.3c-6.4,7-15.8,13.4-23.7,15.6L258.1,65.7z M259.2,43.8h12.1V29.9
		h-9.8V26h9.8V12.5h7.6V26h12.2V12.5h7.6V26h10.1v3.9h-10.1v13.9H311v4h-51.7L259.2,43.8L259.2,43.8z M291.2,43.8V29.9H279v13.9
		H291.2z M289.1,52.4l2-3.1c6.8,2.5,15.2,7,21.2,11.6l-5.9,7.4C301.3,62.9,294.6,56.7,289.1,52.4z"/>
	<path class="st2" d="M323,14.5h47.6v53.2h-7.3v-2.6h-33.1v2.8H323V14.5z M363.3,61.5V18.2h-33.1v43.3H363.3z M331.5,32.8h11.8v-2.7
		h-8.6v-9.7h23.6v9.7h-8.2v2.7H362v3.4h-30.5V32.8z M333,38.4h27.4v20.3H333V38.4z M354.6,55.4V41.8h-15.7v13.6H354.6z M341,43.8
		h11.4v9.3H341V43.8z M352.1,27v-3.4h-11V27H352.1z M348.2,50.4v-3.9h-2.9v3.9H348.2z"/>
	<path class="st2" d="M412.6,32.8v2.6h17.2v3.4h-17.2v2.9h21.5v3.6h-50.8v-3.6h21.4v-2.9H387v-3.4h17.7v-2.6h-16.1v-3.5h16.1v-2.9
		h-22v-3.7h22V20h-15.4v-3.5h15.4v-4.6h7.9v4.6h16v6.2h6.4v3.7h-6.4v6.4C428.6,32.8,412.6,32.8,412.6,32.8z M389.6,48h38.1v19.6
		h-7.6V65h-22.9v2.7h-7.6V48z M397.2,54.8h22.9v-3.4h-22.9V54.8z M397.2,61.6h22.9v-3.5h-22.9V61.6z M412.6,22.7h8.5V20h-8.5V22.7z
		 M412.6,29.3h8.5v-2.9h-8.5V29.3z"/>
	<path class="st2" d="M476.7,43.2v5.5h17.5v18.8h-6.8v-4.3h-10.7v4.6h-6.9V30.9h-2.6v-5.7l-3.4,2.6c-1.4-2.8-3.1-5.6-5.1-8.5
		c-0.6,1-1.2,1.9-1.8,2.8c1.9,1.6,3.8,3.7,5,5.6l-4.1,2.6h8.9V49h-11.9v9.4c1.7-0.4,3.5-0.8,5.2-1.3c-0.7-1.7-1.5-3.4-2.2-4.7
		l2.6-1.6c3.5,3.4,7.3,8.7,8.9,12.5l-6.1,3.1c-0.5-1.8-1.1-3.8-1.9-5.8c-4.6,3.1-10.4,5.3-14.9,6.7l-2.2-7c1.3-0.1,2.6-0.3,4-0.5
		v-28c-1,0.9-2.1,1.7-3.2,2.3l-1.8-2.3c5-5.5,8.6-12.1,10.9-19.6l7.2,2.2c-0.3,0.7-0.6,1.5-1,2.2c2.6,1.8,5,3.9,6.9,5.9v-1.8h13.6
		c-2-2-4.3-3.9-6.7-5.9l1.4-2.6c4,1.2,7.9,2.9,11.6,5.3l-2.4,3.1H496V31h-3.2v12.2H476.7z M454.7,24.9c-1.6,1.9-3.2,3.7-5,5.3h7.5
		C456.4,28.4,455.6,26.5,454.7,24.9z M460.3,33.7h-5.5v4h5.5V33.7z M460.3,41.1h-5.5v4.3h5.5V41.1z M489.5,29.7V24h-15.6v5.7H489.5z
		 M486.2,33.3h-9.5v6.4h9.5V33.3z M476.7,52.2v7.4h10.7v-7.4H476.7z"/>
</g>
<polygon class="st3" points="636,66.9 575.6,66.9 539.6,88.9 540,66.9 515,66.9 515,13.7 636,13.7 "/>
<g>
	<path class="st1" d="M541.3,47.5c-2.2,2.7-6.2,5-9.8,6.1c-0.4-0.7-1.3-1.9-1.9-2.4c3.5-0.8,7.4-2.6,9.4-4.6L541.3,47.5z
		 M545.6,43.2h12.3v2.4h-12.3v8.9h-2.9v-8.9h-12.4v-2.4h12.4v-1.7h2.9V43.2z M537.6,41.7c0-0.4-0.1-0.9-0.2-1.4
		c-4.8,0.7-5.6,0.9-6.2,1.1c-0.1-0.5-0.5-1.6-0.7-2.2c0.6-0.1,1.2-0.7,1.9-1.6c0.4-0.4,1.2-1.5,2.1-2.8c-2.3,0.3-2.8,0.4-3.2,0.6
		c-0.1-0.5-0.5-1.6-0.7-2.1c0.4-0.1,0.8-0.6,1.2-1.3c0.4-0.6,1.8-3.2,2.5-5.6l2.3,0.8c-0.8,2-1.9,4.1-3,5.7l2.2-0.2
		c0.6-0.9,1.1-1.9,1.5-2.8l2.1,1.1c-1.6,2.7-3.5,5.5-5.5,7.8l3.2-0.4c-0.2-0.7-0.3-1.5-0.5-2.1l1.9-0.4c0.4,1.7,0.9,3.8,1.1,5.3
		L537.6,41.7z M548.3,40.7H540V28.9h2.5c0.2-1,0.5-2.2,0.6-3l2.6,0.5c-0.3,0.9-0.7,1.8-1,2.5h3.5V40.7z M545.7,31h-3.3v2.7h3.3V31z
		 M545.7,35.8h-3.3v2.8h3.3V35.8z M549.1,46.3c2.9,1.5,6.8,3.8,8.8,5.4l-1.8,2.1c-1.9-1.6-5.7-4.1-8.7-5.7L549.1,46.3z M556,41.9
		c-0.1-0.4-0.2-0.8-0.2-1.3c-4.8,0.6-5.7,0.8-6.2,1c-0.1-0.5-0.5-1.6-0.7-2.3c0.6-0.1,1.2-0.7,1.9-1.6c0.4-0.5,1.2-1.5,2.2-2.9
		c-2.6,0.4-3.2,0.5-3.6,0.7c-0.1-0.5-0.5-1.6-0.7-2.2c0.4-0.1,0.8-0.6,1.2-1.3c0.5-0.7,1.9-3.3,2.6-5.8l2.4,0.7c-0.8,2-2,4.3-3.1,6
		l2.6-0.2c0.5-0.9,1-1.8,1.4-2.6l2.2,1.2c-1.6,2.8-3.7,5.6-5.7,7.8l3.2-0.3c-0.2-0.7-0.4-1.3-0.6-1.9l1.9-0.5c0.5,1.6,1.1,3.6,1.3,5
		L556,41.9z"/>
	<path class="st1" d="M575.6,35.1h-14.3v-2.3h2v-5h2.2v5h2.1v-6.7h2.4v2.5h4.8v2.2h-4.8v2h5.7V35.1z M572.7,36h2.1v17.9h-2.1v-1.1
		h-10.4V35.9h2v4.5c1.1-1.2,1.5-2.9,1.7-4.8l1.5,0.2c-0.1,0.8-0.2,1.6-0.4,2.2c0.5,0.6,1,1.3,1.4,1.7c0.8-1.1,1.2-2.5,1.4-4.1
		l1.5,0.2c-0.1,0.7-0.2,1.5-0.5,2.2c0.7,0.8,1.4,1.7,1.9,2.4V36z M567.4,41c-0.2-0.4-0.5-0.9-0.8-1.4c-0.3,0.8-0.8,1.5-1.3,2
		c-0.2-0.2-0.6-0.7-1-1v1.3h8.4v-1.5l-1,1.1c-0.3-0.5-0.9-1.3-1.4-2c-0.4,0.8-0.9,1.5-1.4,2c-0.2-0.3-0.6-0.8-1-1.1L567.4,41z
		 M572.7,44.1h-8.4v5.2c1.1-1.2,1.5-2.9,1.7-4.9l1.5,0.2c-0.1,0.8-0.2,1.6-0.4,2.3c0.5,0.6,1.1,1.3,1.4,1.8c0.8-1.1,1.2-2.6,1.4-4.2
		l1.5,0.2c-0.1,0.8-0.2,1.5-0.5,2.2c0.7,0.7,1.4,1.7,1.8,2.3V44.1z M572.7,50.7v-1.2l-0.9,1.1c-0.3-0.5-0.9-1.3-1.4-2.1
		c-0.4,0.8-0.9,1.5-1.4,2c-0.2-0.2-0.6-0.7-1-1l-0.4,0.5c-0.2-0.4-0.6-0.9-1-1.5c-0.3,0.8-0.7,1.5-1.3,2c-0.2-0.2-0.6-0.7-1-1v1.1
		H572.7z M583.8,26.9c-0.2,0.4-0.3,0.9-0.5,1.4c1.6,3,4.3,6.3,6.6,8c-0.5,0.5-1.3,1.6-1.7,2.3c-0.8-0.7-1.7-1.7-2.5-2.7v2h-6.6V36
		c-0.7,1.1-1.5,2-2.3,2.8c-0.4-0.6-1.3-1.6-1.8-2.1c2.9-2.7,5.3-7,6.6-10.7L583.8,26.9z M589.1,41.8c-1.4,2.9-3.7,6.1-5.5,8.3
		c1,1,1.8,1.9,2.5,2.7l-1.9,1.9c-1.4-1.8-4.3-4.8-6.4-7l1.7-1.6c0.7,0.7,1.6,1.5,2.4,2.3c1.3-1.5,2.7-3.5,3.8-5.4h-9v-2.5h10.3
		l0.4-0.2L589.1,41.8z M585.4,35.4c-1.1-1.4-2.2-3.1-3.1-4.7c-0.8,1.7-1.7,3.3-2.8,4.7H585.4z"/>
	<path class="st1" d="M601,26.9h2.6v10.9h-6.4v0.8c0,0.8,0,1.6,0,2.4h6.2v13.5h-2.6v-11h-3.7c-0.2,4-0.8,8.1-2.4,11.2
		c-0.5-0.6-1.4-1.4-2-1.7c1.8-4,2-9.8,2-14.4V26.2h2.6v9h3.8V26.9z M620.5,35.8c-0.7,4.9-2.2,8.9-4.3,12.1c1.5,1.8,3.2,3.2,5.3,4.2
		c-0.7,0.5-1.5,1.6-2,2.4c-2-1-3.6-2.5-5-4.2c-1.5,1.8-3.2,3.2-5.2,4.3c-0.4-0.7-1.2-1.8-1.8-2.4c2-1,3.8-2.5,5.3-4.4
		c-1.6-2.8-2.9-6.1-3.7-9.9v0.9c0,5.1-0.3,11.5-2.9,15.8c-0.5-0.5-1.6-1.2-2.3-1.6c2.2-4,2.5-9.9,2.5-14.3v-11h13.8v2.6h-11.1v4.9
		h9.1l0.5-0.1L620.5,35.8z M611.6,38c0.7,2.7,1.6,5.2,2.9,7.5c1.2-2.2,2.2-4.7,2.8-7.5H611.6z"/>
</g>
</svg>
