<svg xmlns="http://www.w3.org/2000/svg" width="20" height="20" viewBox="0 0 19.031 19.031">
  <defs>
    <style>
      .cls-1 {
        fill: #279491;
        fill-rule: evenodd;
      }
    </style>
  </defs>
  <path id="形狀_19_拷貝" data-name="形狀 19 拷貝" class="cls-1" d="M847.171,367.727a11.662,11.662,0,0,0-3.5,1,18.552,18.552,0,0,0-3.435,2.089L839.99,371h-2.96l-0.241-.182a18.651,18.651,0,0,0-3.435-2.089,11.685,11.685,0,0,0-3.506-1,0.891,0.891,0,0,1,.047-1.78,0.868,0.868,0,0,1,.155.013,13.4,13.4,0,0,1,4.034,1.143,20.106,20.106,0,0,1,3.527,2.111h1.8a20.062,20.062,0,0,1,3.526-2.111,13.406,13.406,0,0,1,4.034-1.143,0.891,0.891,0,1,1,.2,1.767h0Zm-9.256-.592V355.549a0.594,0.594,0,0,0-.282-0.506,15.345,15.345,0,0,0-3.686-2.025,17.136,17.136,0,0,0-4.278-1.034,0.62,0.62,0,0,0-.666.6v11.585a0.623,0.623,0,0,0,.594.594,15.757,15.757,0,0,1,3.929.95,14.24,14.24,0,0,1,3.441,1.9,0.594,0.594,0,0,0,.948-0.473h0Zm1.188,0a0.607,0.607,0,0,0,.12.355,0.593,0.593,0,0,0,.83.118,14.228,14.228,0,0,1,3.439-1.9,15.778,15.778,0,0,1,3.929-.95,0.623,0.623,0,0,0,.595-0.594V352.579a0.62,0.62,0,0,0-.666-0.6,17.144,17.144,0,0,0-4.279,1.034,15.333,15.333,0,0,0-3.684,2.025,0.593,0.593,0,0,0-.284.506v11.586Z" transform="translate(-829 -351.969)"/>
</svg>
